<svg width="60" height="60" viewBox="0 0 60 60" fill="none" xmlns="http://www.w3.org/2000/svg">
<g clip-path="url(#clip0_4_34)">
<rect width="60" height="60" rx="7.5" fill="#6750A4"/>
<g clip-path="url(#clip1_4_34)">
<path fill-rule="evenodd" clip-rule="evenodd" d="M22.8406 40.4405C20.2336 33.9326 24.8642 27.0942 32.1822 27.275C33.9571 27.4223 34.9071 27.5426 35.4581 29.3303C36.1618 31.942 31.7149 33.2527 29.9636 31.8495C29.1396 31.1974 28.0335 32.7577 30.6755 33.4188C30.283 34.5275 29.5947 35.2016 28.3854 35.7793C27.3347 36.2735 26.2237 36.5909 25.19 36.8348C24.9787 36.9076 24.8463 36.9935 24.7731 37.288C24.7146 37.6415 24.9747 37.8968 25.2624 37.9532C25.4655 37.9426 25.7044 37.8796 25.9409 37.815C28.2278 37.2316 31.1103 36.2195 31.8246 33.5464C32.0546 33.5464 32.287 33.5317 32.5195 33.5039C32.2497 34.9472 32.0083 36.5435 32.8819 37.918C33.7848 39.2599 35.7352 39.7377 36.9704 38.4818C38.1098 37.3592 38.621 35.686 39.0598 34.3851C40.1658 31.7268 39.5385 29.0718 38.3089 26.3292C38.5023 26.2637 38.9403 26.3685 39.0574 26.4086C39.3507 26.5084 39.4897 26.5673 39.6758 26.7833C40.0399 27.2087 40.3373 27.6334 40.6193 28.1218C41.4718 29.6052 41.7806 31.3414 41.9293 33.0269C42.1772 35.8341 41.796 38.6839 40.3219 41.1286C38.4243 44.2746 34.9493 46.5303 31.2314 46.4649C27.5906 46.4002 24.1961 43.8262 22.8398 40.4422L22.8406 40.4405ZM29.2688 39.3777C28.6894 38.7837 28.0059 39.9463 27.6215 40.2507C27.5947 40.2597 27.0957 40.7874 27.06 40.8218C26.5196 41.4134 27.4501 42.1759 27.9328 41.5385C29.2477 43.0612 31.693 43.4457 33.1777 41.9427C33.6466 41.451 34.5105 40.7719 33.8059 40.209C33.4166 39.975 33.0851 40.2605 32.89 40.605C31.8084 42.1309 29.9401 42.1285 28.7211 40.7359C29.0372 40.3988 29.771 39.8776 29.268 39.3777H29.2688Z" fill="white"/>
<path d="M33.2419 24.089C36.291 22.2922 38.2097 28.7903 38.5063 30.8022C38.6624 31.8413 38.3828 32.8698 37.996 34.0292C37.5393 35.3825 37.0947 36.7824 36.1943 37.6669C35.5442 38.3468 34.4032 38.1627 33.814 37.2905C33.0915 36.1671 33.4678 34.5127 33.7124 33.2421C35.5434 32.6882 37.2361 30.9986 36.5031 28.9237C36.1545 28.0081 35.6831 26.9625 34.6259 26.5943C34.0074 26.3415 33.0217 26.1025 32.1432 26.0976C31.9945 26.078 31.8669 26.1034 31.7799 26.0142C31.8287 25.1674 32.517 24.5398 33.2411 24.0898L33.2419 24.089Z" fill="white"/>
<path d="M18.0759 18.108C18.7017 14.5481 21.5696 15.0316 23.7459 17.6785C25.2404 19.2854 26.8568 23.4622 27.4541 27.0066C25.8231 27.6923 24.4448 28.7208 23.3843 29.9849C20.7984 27.0696 17.455 21.488 18.0759 18.108Z" fill="white"/>
<path d="M25.2867 14.4875C28.0855 11.5306 29.8206 16.1967 30.5048 18.4656C31.2557 20.853 30.8006 23.6594 30.6121 26.1754C29.9904 26.2384 29.3484 26.3816 28.7576 26.5485C28.6585 26.0485 28.5536 25.5437 28.4374 25.0536C27.4395 20.9062 26.2546 18.4107 24.3456 16.3137C24.5545 15.6649 24.8641 14.9997 25.2859 14.4875H25.2867Z" fill="white"/>
</g>
</g>
<defs>
<clipPath id="clip0_4_34">
<rect width="60" height="60" fill="white"/>
</clipPath>
<clipPath id="clip1_4_34">
<rect width="23.9996" height="32.9297" fill="white" transform="translate(18.0004 13.5351)"/>
</clipPath>
</defs>
</svg>
