<svg width="60" height="60" viewBox="0 0 60 60" fill="none" xmlns="http://www.w3.org/2000/svg">
<g clip-path="url(#clip0_4_27)">
<rect width="60" height="60" rx="7.5" fill="#0E1829"/>
<path d="M29.3969 19.3063C32.7752 19.3063 34.416 20.7095 34.416 23.0804C34.416 25.4029 33.0165 26.8061 29.4452 26.8061C25.8739 26.8061 24.5709 25.3545 24.5709 23.0804C24.5709 20.8063 25.9222 19.3063 29.3969 19.3063ZM29.783 41.1282C23.9917 41.1282 22.6404 40.4992 22.6404 38.7573C22.6404 37.6445 23.7022 36.5316 26.0669 36.5316H34.7538C36.636 36.5316 37.2634 37.4025 37.2634 38.4186C37.2634 40.2573 35.9604 41.1282 29.783 41.1282ZM29.8795 44.9991C38.4699 45.0475 41.4138 42.6766 41.4138 38.4186C41.4138 34.8865 39.3869 32.7575 34.5608 32.7575C32.0513 32.7575 29.1556 32.9027 26.453 32.9027C25.1017 32.9027 24.4743 32.564 24.4743 31.693C24.4743 31.3059 24.7156 31.0156 25.0052 30.5318L25.4878 29.7576C26.6461 30.0963 27.9491 30.2415 29.3969 30.2415C35.5743 30.2415 38.9043 28.1609 38.9043 24.1449C38.9043 21.0966 36.7808 19.8869 33.9817 19.3547V19.3063C35.5743 19.4031 36.6843 19.4031 37.7943 19.4031H40.7382V15H29.6382C23.5091 15 19.8896 17.8064 19.8896 22.7901C19.8896 26.1771 21.7235 28.5964 25.1017 29.6608L23.3643 30.435C21.5304 31.064 20.517 32.2737 20.517 33.4349C20.517 35.1284 21.7717 36.1929 23.9917 36.4832C20.4687 36.9187 18.5865 38.4186 18.5865 40.3541C18.5865 43.2088 21.0478 45.0475 29.8795 44.9991Z" fill="white"/>
</g>
<defs>
<clipPath id="clip0_4_27">
<rect width="60" height="60" fill="white"/>
</clipPath>
</defs>
</svg>
