<svg width="60" height="60" viewBox="0 0 60 60" fill="none" xmlns="http://www.w3.org/2000/svg">
<g clip-path="url(#clip0_4_43)">
<rect width="60" height="60" rx="7.5" fill="#14766A"/>
<path d="M29.3225 17.8209C29.8929 16.949 31.2027 16.9489 31.7731 17.8209L31.8836 18.0214L32.0898 18.4612C34.2671 22.9701 37.7384 26.5995 41.9756 28.8163C42.9579 29.3305 43.0196 30.6863 42.1601 31.3057L41.9756 31.4196C37.7381 33.6365 34.2671 37.2666 32.0898 41.7759L31.8836 42.2145C31.3611 43.3539 29.7345 43.3539 29.212 42.2145C27.1187 37.6493 23.7151 33.9458 19.5279 31.6384L19.12 31.4196C18.0717 30.8712 18.0717 29.3647 19.12 28.8163L19.5279 28.5976C23.7151 26.2901 27.1187 22.5866 29.212 18.0214L29.3225 17.8209Z" fill="white"/>
</g>
<defs>
<clipPath id="clip0_4_43">
<rect width="60" height="60" fill="white"/>
</clipPath>
</defs>
</svg>
