<svg width="50" height="50" viewBox="0 0 50 50" fill="none" xmlns="http://www.w3.org/2000/svg">
<mask id="mask0_2222_7732" style="mask-type:alpha" maskUnits="userSpaceOnUse" x="-1" y="0" width="51" height="50">
<rect x="0.41098" y="0.411225" width="48.5245" height="48.5245" fill="#7E22CE" stroke="#FFEBD8" stroke-width="0.822449"/>
</mask>
<g mask="url(#mask0_2222_7732)">
<path d="M19.5334 6.58008C23.162 6.58018 26.2176 7.83257 28.7258 10.3408C31.2342 12.8492 32.4866 15.9054 32.4866 19.5342C32.4865 20.9974 32.254 22.3721 31.7913 23.6611C31.3256 24.9582 30.6955 26.0999 29.9036 27.0898L29.6741 27.3779L42.5969 40.3008L40.3 42.5977L27.3772 29.6748L27.0891 29.9043C26.0992 30.6962 24.9575 31.3264 23.6604 31.792C22.3714 32.2547 20.9966 32.4873 19.5334 32.4873C15.9047 32.4873 12.8485 31.2349 10.3401 28.7266C7.83184 26.2183 6.57945 23.1627 6.57935 19.5342C6.57935 15.9054 7.8317 12.8492 10.3401 10.3408C12.8485 7.83244 15.9047 6.58008 19.5334 6.58008ZM19.5334 9.87012C16.8555 9.87012 14.5658 10.8124 12.6887 12.6895C10.8116 14.5666 9.86938 16.8562 9.86938 19.5342C9.86949 22.2119 10.8118 24.5009 12.6887 26.3779C14.5658 28.255 16.8555 29.1973 19.5334 29.1973C22.2112 29.1972 24.5002 28.2549 26.3772 26.3779C28.2542 24.5009 29.1964 22.212 29.1965 19.5342C29.1965 16.8562 28.2543 14.5666 26.3772 12.6895C24.5002 10.8125 22.2112 9.87022 19.5334 9.87012Z" fill="#625B71" stroke="#F5F5F7" stroke-width="0.822449"/>
</g>
</svg>
