<svg width="50" height="50" viewBox="0 0 50 50" fill="none" xmlns="http://www.w3.org/2000/svg">
<mask id="mask0_2222_7727" style="mask-type:alpha" maskUnits="userSpaceOnUse" x="-1" y="0" width="51" height="50">
<rect x="0.41098" y="0.411225" width="48.5245" height="48.5245" fill="#7E22CE" stroke="#FFEBD8" stroke-width="0.822449"/>
</mask>
<g mask="url(#mask0_2222_7727)">
<path d="M43.5891 36.4795L39.4778 32.3682V16.9785L42.4749 13.9814H31.5452L34.5422 16.9785V24.2617H14.804V16.9795L17.0999 14.6836L17.801 13.9814H6.87134L9.86938 16.9795V32.3672L5.75708 36.4795V39.4775H16.8596V37.0098C16.8596 34.858 17.6214 33.0263 19.1555 31.4922C20.6896 29.9581 22.5214 29.1963 24.6731 29.1963C26.8249 29.1963 28.6566 29.9581 30.1907 31.4922C31.7248 33.0263 32.4866 34.858 32.4866 37.0098V39.4775H43.5891V36.4795ZM31.2532 18.334L31.1321 18.2139L27.1409 14.2227V6.5791H30.4299V10.6914H35.3655V6.5791H38.6545V10.6914H43.5891V6.5791H46.8792V14.2227L42.8879 18.2139L42.7668 18.334V31.0117L42.8879 31.1318L46.8792 35.123V42.7666H29.1965V37.0098C29.1965 35.769 28.7502 34.6963 27.8684 33.8145C26.9866 32.9327 25.9138 32.4863 24.6731 32.4863C23.4324 32.4864 22.3596 32.9327 21.4778 33.8145C20.596 34.6963 20.1497 35.769 20.1497 37.0098V42.7666H2.46704V35.124L6.57935 31.0117V18.334L2.46704 14.2217V6.5791H5.75708V10.6914H10.6917V6.5791H13.9817V10.6914H18.9163V6.5791H22.2063V14.2217L18.094 18.334V20.9717H31.2532V18.334Z" fill="#625B71" stroke="#F5F5F7" stroke-width="0.822449"/>
</g>
</svg>
