<svg width="50" height="50" viewBox="0 0 50 50" fill="none" xmlns="http://www.w3.org/2000/svg">
<mask id="mask0_2222_7707" style="mask-type:alpha" maskUnits="userSpaceOnUse" x="-1" y="0" width="51" height="50">
<rect x="0.41098" y="0.411225" width="48.5245" height="48.5245" fill="#D9D9D9" stroke="#FFEBD8" stroke-width="0.822449"/>
</mask>
<g mask="url(#mask0_2222_7707)">
<path d="M40.7026 10.5654V22.8232C40.7026 27.9439 39.1803 32.5969 36.1294 36.7939C33.1021 40.9586 29.2824 43.6216 24.6646 44.8086C20.0473 43.6214 16.2277 40.9582 13.2007 36.7939C10.1499 32.5969 8.62749 27.9438 8.62744 22.8232V10.5654L24.6655 4.55078L40.7026 10.5654ZM28.3667 18.2998C29.4885 18.2999 30.4466 18.7001 31.2622 19.5156C32.0779 20.3313 32.479 21.2901 32.479 22.4121C32.4789 23.566 32.0276 24.7568 31.0737 25.9902C30.1316 27.2083 28.0051 29.3195 24.6655 32.3418C22.9805 30.8116 21.6285 29.5464 20.6099 28.5439C19.5363 27.4874 18.7184 26.6016 18.1509 25.8838C17.5823 25.1646 17.2401 24.5673 17.0903 24.0879C16.933 23.5844 16.8521 23.0268 16.8521 22.4121C16.8521 21.2901 17.2522 20.3313 18.0679 19.5156C18.8836 18.6999 19.8423 18.2998 20.9644 18.2998C21.6636 18.2998 22.3086 18.434 22.9038 18.7002C23.5002 18.967 23.9773 19.3313 24.3442 19.79L24.6655 20.1914L24.9868 19.79C25.3519 19.3337 25.8352 18.9696 26.4487 18.7021C27.0658 18.4332 27.7044 18.2998 28.3667 18.2998ZM37.4136 12.8232L37.146 12.7227L24.8101 8.09668L24.6655 8.04199L24.521 8.09668L12.1841 12.7227L11.9175 12.8232V22.8232C11.9175 27.052 13.1073 30.9027 15.4849 34.3643C17.8613 37.8241 20.8806 40.1472 24.5405 41.3086L24.6655 41.3486L24.7896 41.3086C28.4496 40.1472 31.4687 37.8243 33.8452 34.3643C36.2229 30.9027 37.4135 27.0521 37.4136 22.8232V12.8232Z" fill="#625B71" stroke="#F5F5F7" stroke-width="0.822449"/>
</g>
</svg>
