<svg width="50" height="50" viewBox="0 0 50 50" fill="none" xmlns="http://www.w3.org/2000/svg">
<mask id="mask0_2222_7712" style="mask-type:alpha" maskUnits="userSpaceOnUse" x="-1" y="0" width="51" height="50">
<rect x="0.41098" y="0.411225" width="48.5245" height="48.5245" fill="#7E22CE" stroke="#FFEBD8" stroke-width="0.822449"/>
</mask>
<g mask="url(#mask0_2222_7712)">
<path d="M24.6736 4.52344C25.2311 4.52348 25.764 4.63933 26.2761 4.87207C26.7724 5.09763 27.2086 5.45332 27.5828 5.95215L27.5867 5.95703L33.3435 13.4102L33.4197 13.5098L33.5378 13.5488L42.2761 16.4785V16.4795L42.2869 16.4824C43.0935 16.7307 43.7181 17.1825 44.1775 17.8408C44.6437 18.5091 44.8747 19.2409 44.8748 20.0469C44.8748 20.4175 44.8212 20.7906 44.7117 21.166C44.6061 21.5278 44.4311 21.8797 44.1824 22.2217L44.1785 22.2266L38.5242 30.2451L38.446 30.3564L38.449 30.4922L38.655 38.9219V38.9238C38.6862 40.0141 38.333 40.9147 37.5935 41.6543C36.8431 42.4047 35.9859 42.7675 35.0056 42.7676C35.0057 42.7675 34.9294 42.7601 34.7263 42.7324C34.5461 42.7078 34.2928 42.6711 33.9656 42.6221L24.7839 40.0586L24.6736 40.0273L24.5623 40.0586L15.3611 42.6279L15.3396 42.6348L15.3191 42.6426C15.19 42.6942 15.0422 42.729 14.8728 42.7432C14.6765 42.7595 14.4994 42.7676 14.3416 42.7676C13.3612 42.7676 12.5041 42.4047 11.7537 41.6543C11.014 40.9147 10.66 40.0142 10.6912 38.9238V38.9219L10.8972 30.4404L10.9001 30.3047L10.822 30.1943L5.21948 22.2266L5.21558 22.2217L5.04272 21.9629C4.8838 21.7028 4.76542 21.4373 4.68628 21.166C4.57679 20.7906 4.52319 20.4175 4.52319 20.0469C4.52327 19.2754 4.74518 18.5581 5.198 17.8867C5.64115 17.2296 6.25896 16.7599 7.06909 16.4785L7.07007 16.4795L15.8083 13.5488L15.9265 13.5098L16.0037 13.4102L21.7605 5.95703L21.7634 5.95215C22.1376 5.45322 22.5738 5.09766 23.0701 4.87207C23.5824 4.63919 24.1159 4.52344 24.6736 4.52344ZM24.3464 7.97461L17.946 16.3555L8.09546 19.6055L7.573 19.7773L7.88647 20.2305L14.1843 29.3213L13.9812 39.0068L13.9705 39.5576L14.5017 39.4111L24.6707 36.6143L34.8435 39.4619L35.3767 39.6113L35.365 39.0576L35.1609 29.3223L41.4587 20.335L41.7732 19.8857L41.2546 19.709L31.4011 16.3564L24.9998 7.97461L24.6736 7.54688L24.3464 7.97461ZM31.2527 28.0664C30.694 29.2857 29.8833 30.2967 28.8191 31.1055C27.6071 32.0265 26.2303 32.4863 24.6736 32.4863C23.1167 32.4863 21.7392 32.0266 20.5271 31.1055C19.463 30.2967 18.6532 29.2856 18.0945 28.0664H31.2527ZM19.533 18.916C20.2817 18.916 20.9049 19.1738 21.4265 19.6953C21.9481 20.2169 22.2057 20.8402 22.2058 21.5889C22.2058 22.3378 21.9482 22.9617 21.4265 23.4834C20.9049 24.0049 20.2817 24.2627 19.533 24.2627C18.7842 24.2627 18.1611 24.0049 17.6394 23.4834C17.1177 22.9617 16.8601 22.3378 16.8601 21.5889C16.8602 20.8402 17.1178 20.2169 17.6394 19.6953C18.1611 19.1738 18.7842 18.916 19.533 18.916ZM29.8132 18.916C30.5621 18.916 31.1861 19.1736 31.7078 19.6953C32.2293 20.2169 32.486 20.8402 32.4861 21.5889C32.4861 22.3377 32.2294 22.9617 31.7078 23.4834C31.1861 24.0051 30.5621 24.2627 29.8132 24.2627C29.0645 24.2626 28.4413 24.005 27.9197 23.4834C27.398 22.9617 27.1404 22.3378 27.1404 21.5889C27.1405 20.8402 27.3981 20.2169 27.9197 19.6953C28.4413 19.1737 29.0645 18.9161 29.8132 18.916Z" fill="#625B71" stroke="#F5F5F7" stroke-width="0.822449"/>
</g>
</svg>
