<svg width="50" height="50" viewBox="0 0 50 50" fill="none" xmlns="http://www.w3.org/2000/svg">
<mask id="mask0_2222_7722" style="mask-type:alpha" maskUnits="userSpaceOnUse" x="-1" y="0" width="51" height="50">
<rect x="0.41098" y="0.411225" width="48.5245" height="48.5245" fill="#7E22CE" stroke="#FFEBD8" stroke-width="0.822449"/>
</mask>
<g mask="url(#mask0_2222_7722)">
<path d="M41.3689 37.9141L39.3943 40.5459L33.4724 36.1045L35.446 33.4727L41.3689 37.9141ZM26.3181 36.2822L16.6599 30.4883L16.5623 30.4297H13.9812V38.6543H10.6921V30.4297H8.22437C7.20343 30.4297 6.33989 30.0706 5.61108 29.3418C4.88233 28.613 4.52319 27.7494 4.52319 26.7285V22.6162C4.52326 21.5954 4.88234 20.7317 5.61108 20.0029C6.33986 19.2742 7.20351 18.915 8.22437 18.915H16.5623L26.3181 13.0615V36.2822ZM29.197 18.7754C29.7704 19.414 30.2556 20.1438 30.6501 20.9688C31.1872 22.0917 31.4587 23.3247 31.4587 24.6729C31.4587 26.0209 31.1872 27.2531 30.6501 28.376C30.2556 29.201 29.7704 29.9307 29.197 30.5693V18.7754ZM22.408 19.2812L17.4675 22.2051H7.81323V27.1396H17.4656L22.408 30.0645L23.0281 30.4316V18.9141L22.408 19.2812ZM44.823 23.0273V26.3174H37.4216V23.0273H44.823ZM41.3689 11.4307L35.447 15.8721L33.4724 13.2402L39.3943 8.79883L41.3689 11.4307Z" fill="#625B71" stroke="#F5F5F7" stroke-width="0.822449"/>
</g>
</svg>
