<svg width="50" height="50" viewBox="0 0 50 50" fill="none" xmlns="http://www.w3.org/2000/svg">
<mask id="mask0_2222_7737" style="mask-type:alpha" maskUnits="userSpaceOnUse" x="-1" y="0" width="51" height="50">
<rect x="0.41098" y="0.411225" width="48.5245" height="48.5245" fill="#7E22CE" stroke="#FFEBD8" stroke-width="0.822449"/>
</mask>
<g mask="url(#mask0_2222_7737)">
<path d="M38.8616 28.9951L26.5247 36.0889L26.5237 36.0898C25.9322 36.4323 25.317 36.5996 24.6731 36.5996C24.0294 36.5996 23.4148 36.4321 22.8235 36.0898L22.8225 36.0889L10.4856 28.9951L9.86938 28.6406V33.0332L10.0745 33.1514L24.467 41.4785L24.6731 41.5977L24.8792 41.4785L39.2717 33.1514L39.4778 33.0332V28.6406L38.8616 28.9951ZM26.3186 28.375H23.0286V21.0312L22.4114 21.3877L13.7756 26.374L13.1584 26.7305L13.7756 27.0859L24.468 33.2549L24.6731 33.373L24.8792 33.2549L35.5706 27.0859L36.1877 26.7305L35.5706 26.374L26.9348 21.3877L26.3186 21.0312V28.375ZM24.6731 5.75781C23.7087 5.75786 22.8752 6.0997 22.1975 6.77734C21.5199 7.455 21.178 8.28847 21.178 9.25293C21.178 10.2174 21.5199 11.0509 22.1975 11.7285C22.8752 12.4062 23.7087 12.748 24.6731 12.748C25.6376 12.748 26.471 12.4062 27.1487 11.7285C27.8264 11.0508 28.1692 10.2175 28.1692 9.25293C28.1692 8.28845 27.8263 7.45501 27.1487 6.77734C26.471 6.09977 25.6375 5.75781 24.6731 5.75781ZM23.0286 15.834L22.7336 15.7471C21.3095 15.3263 20.1492 14.5286 19.2424 13.3467C18.3405 12.171 17.8879 10.8115 17.8879 9.25293C17.888 7.37445 18.5474 5.78291 19.8752 4.45508C21.2031 3.12726 22.7946 2.46782 24.6731 2.46777C26.5517 2.46777 28.1441 3.12721 29.4719 4.45508C30.7996 5.78286 31.4582 7.37458 31.4583 9.25293C31.4583 10.8115 31.0057 12.171 30.1038 13.3467C29.1971 14.5285 28.0366 15.3263 26.6125 15.7471L26.3186 15.834V17.2529L26.5247 17.3711L40.9172 25.6465C41.5069 25.988 41.959 26.4417 42.2815 27.0098C42.6049 27.5796 42.7668 28.2035 42.7668 28.8887V32.7959C42.7668 33.4811 42.6049 34.105 42.2815 34.6748C41.9591 35.2428 41.5067 35.6956 40.9172 36.0371L26.5247 44.3135H26.5237C25.9322 44.6559 25.317 44.8242 24.6731 44.8242C24.0292 44.8242 23.4149 44.6559 22.8235 44.3135H22.8225L8.42896 36.0371H8.42798C7.83912 35.6957 7.38784 35.2423 7.06567 34.6748C6.74224 34.105 6.57938 33.4811 6.57935 32.7959V28.8887C6.5794 28.2035 6.74227 27.5796 7.06567 27.0098C7.38793 26.4421 7.83892 25.9879 8.42798 25.6465L8.42896 25.6475L22.8225 17.3711L23.0286 17.2529V15.834Z" fill="#625B71" stroke="#F5F5F7" stroke-width="0.822449"/>
</g>
</svg>
