<svg width="50" height="50" viewBox="0 0 50 50" fill="none" xmlns="http://www.w3.org/2000/svg">
<mask id="mask0_2222_7717" style="mask-type:alpha" maskUnits="userSpaceOnUse" x="0" y="0" width="50" height="50">
<rect x="0.411225" y="0.411225" width="48.5245" height="48.5245" fill="#7E22CE" stroke="#FFEBD8" stroke-width="0.822449"/>
</mask>
<g mask="url(#mask0_2222_7717)">
<path d="M20.1423 39.168H29.1892V36.4951H20.1423V39.168ZM20.1423 35.2617H29.1892V32.4854H20.1423V35.2617ZM16.8523 31.2363L16.6677 31.1143C14.7031 29.8156 13.1287 28.1012 11.9431 25.9639C10.7613 23.8334 10.1697 21.5206 10.1697 19.0186C10.1697 14.9796 11.5758 11.5636 14.3933 8.74609C17.2108 5.92859 20.6268 4.52246 24.6658 4.52246C28.7046 4.52254 32.1208 5.92867 34.9382 8.74609C37.7555 11.5635 39.1609 14.9797 39.1609 19.0186C39.1608 21.5911 38.5689 23.9195 37.3894 26.0127C36.2041 28.1161 34.629 29.8146 32.6628 31.1143L32.4783 31.2363V38.7568C32.4783 39.7776 32.12 40.6414 31.3914 41.3701C30.6626 42.0988 29.7988 42.4579 28.7781 42.458H28.5388L28.4207 42.665C28.045 43.3224 27.5302 43.8458 26.8708 44.2383C26.2191 44.6262 25.4874 44.8222 24.6658 44.8223C23.844 44.8223 23.1116 44.6263 22.4597 44.2383C21.8004 43.8458 21.2856 43.3224 20.9099 42.665L20.7917 42.458H20.5535C19.5325 42.458 18.668 42.0989 17.9392 41.3701C17.2107 40.6414 16.8523 39.7776 16.8523 38.7568V31.2363ZM23.5349 23.0625L23.4138 22.9424L19.1814 18.71L20.7585 17.1318L24.6658 21.0391L24.9558 20.748L28.571 17.1318L30.1492 18.71L25.7966 23.0625V29.1963H29.283L29.3669 29.1553C31.2843 28.2321 32.8482 26.8722 34.0535 25.082C35.2659 23.2812 35.8708 21.2561 35.8708 19.0186C35.8708 15.8963 34.7842 13.2376 32.615 11.0684C30.4459 8.89931 27.7878 7.81258 24.6658 7.8125C21.5435 7.8125 18.8848 8.89913 16.7156 11.0684C14.5463 13.2376 13.4597 15.8963 13.4597 19.0186C13.4598 21.2561 14.0648 23.2813 15.2771 25.082C16.4823 26.8722 18.0462 28.2321 19.9636 29.1553L20.0486 29.1963H23.5349V23.0625Z" fill="#625B71" stroke="#F5F5F7" stroke-width="0.822449"/>
</g>
</svg>
