<svg width="50" height="50" viewBox="0 0 50 50" fill="none" xmlns="http://www.w3.org/2000/svg">
<mask id="mask0_2222_7702" style="mask-type:alpha" maskUnits="userSpaceOnUse" x="0" y="0" width="50" height="50">
<rect x="0.411225" y="0.411225" width="48.5245" height="48.5245" fill="#7E22CE" stroke="#FFEBD8" stroke-width="0.822449"/>
</mask>
<g mask="url(#mask0_2222_7702)">
<path d="M36.3447 4.52344L34.4941 8.22461L36.3447 11.9258H26.3184V18.916H29.2998C30.0122 18.916 30.6555 19.101 31.2393 19.4697C31.826 19.8403 32.2886 20.3325 32.6318 20.9512H32.6328L44.5693 44.8232H4.77344L16.5088 21.002C16.8171 20.3855 17.2709 19.8839 17.8789 19.4941C18.4814 19.1079 19.1329 18.916 19.8418 18.916H23.0283V4.52344H36.3447ZM15.6689 30.1465L10.374 40.9414L10.084 41.5342H39.2158L38.9209 40.9395L33.5742 30.1963L33.3672 29.7793L32.9795 30.0361L28.9092 32.7324L24.8555 30.7305L24.6738 30.6406L24.4912 30.7305L20.4355 32.7324L16.2637 29.9844L15.874 29.7275L15.6689 30.1465ZM19.4727 22.4355L17.5195 26.3936L17.3604 26.7158L17.6592 26.917L20.4863 28.8184L20.6865 28.9531L20.9014 28.8438L24.6729 26.9336L28.4453 28.8438L28.6592 28.9521L28.8584 28.8203L31.583 27.0215L31.8887 26.8193L31.7227 26.4922L29.667 22.4316L29.5527 22.2061H19.5859L19.4727 22.4355Z" fill="#625B71" stroke="#F5F5F7" stroke-width="0.822449"/>
</g>
</svg>
